<svg width="21" height="21" viewBox="0 0 21 21" fill="none" xmlns="http://www.w3.org/2000/svg">
<path d="M12.2437 8.71651L12.2433 2.35704C12.2153 1.91619 12.0205 1.5027 11.6985 1.2006C11.3765 0.898508 10.9514 0.730487 10.5096 0.730692C10.0678 0.730896 9.64258 0.899313 9.32026 1.20171C8.99794 1.5041 8.80275 1.91777 8.77437 2.35864L8.76815 8.71812L2.39311 8.72025C2.16479 8.72036 1.9387 8.76543 1.72772 8.8529C1.51675 8.94037 1.32503 9.06852 1.16351 9.23004C1.002 9.39156 0.873848 9.58327 0.786378 9.79425C0.698909 10.0052 0.653834 10.2313 0.653729 10.4596C0.653623 10.6879 0.698488 10.914 0.785762 11.1249C0.873035 11.3358 1.00101 11.5274 1.16237 11.6888C1.32374 11.8501 1.51534 11.9781 1.72623 12.0654C1.93713 12.1526 2.16318 12.1975 2.39149 12.1974L8.76653 12.1936L8.76604 18.5523C8.75271 18.7883 8.78768 19.0246 8.86881 19.2466C8.94994 19.4686 9.07552 19.6716 9.23788 19.8434C9.40024 20.0151 9.59595 20.1518 9.81305 20.2452C10.0301 20.3387 10.2641 20.3868 10.5005 20.3867C10.7369 20.3866 10.9709 20.3382 11.1881 20.2446C11.4052 20.151 11.6011 20.0141 11.7636 19.8422C11.9261 19.6703 12.0519 19.4671 12.1332 19.2451C12.2146 19.023 12.2497 18.7867 12.2366 18.5507L12.242 12.192L18.5974 12.1899C19.0585 12.1897 19.5008 12.0063 19.827 11.6801C20.1532 11.3539 20.3366 10.9116 20.3368 10.4505C20.337 9.98941 20.154 9.54728 19.8281 9.22139C19.5023 8.89549 19.0601 8.71253 18.599 8.71274L12.2437 8.71651Z" fill="#353535"/>
</svg>
