<svg width="24" height="24" viewBox="0 0 24 24" fill="none" xmlns="http://www.w3.org/2000/svg">
<path d="M14.1208 11.9998L17.9998 8.11676C18.2517 7.83052 18.3851 7.45912 18.3729 7.07805C18.3607 6.69698 18.2039 6.33485 17.9343 6.06526C17.6647 5.79567 17.3026 5.63885 16.9215 5.62668C16.5405 5.61452 16.1691 5.74791 15.8828 5.99976L11.9998 9.87876L8.10983 5.98776C7.9705 5.84843 7.80509 5.7379 7.62304 5.6625C7.441 5.58709 7.24588 5.54828 7.04883 5.54828C6.85179 5.54828 6.65667 5.58709 6.47462 5.6625C6.29258 5.7379 6.12717 5.84843 5.98783 5.98776C5.8485 6.12709 5.73798 6.2925 5.66257 6.47455C5.58716 6.6566 5.54835 6.85171 5.54835 7.04876C5.54835 7.2458 5.58716 7.44092 5.66257 7.62297C5.73798 7.80501 5.8485 7.97043 5.98783 8.10976L9.87883 11.9998L5.99983 15.8818C5.84771 16.0177 5.72492 16.1833 5.639 16.3684C5.55307 16.5535 5.50581 16.7541 5.5001 16.9581C5.49439 17.1621 5.53036 17.3651 5.6058 17.5547C5.68124 17.7443 5.79457 17.9165 5.93885 18.0607C6.08314 18.205 6.25534 18.3184 6.44493 18.3938C6.63452 18.4692 6.83751 18.5052 7.04147 18.4995C7.24544 18.4938 7.4461 18.4465 7.63118 18.3606C7.81625 18.2747 7.98184 18.1519 8.11783 17.9998L11.9998 14.1208L15.8778 17.9998C16.1592 18.2812 16.5409 18.4392 16.9388 18.4392C17.3368 18.4392 17.7184 18.2812 17.9998 17.9998C18.2812 17.7184 18.4393 17.3367 18.4393 16.9388C18.4393 16.5408 18.2812 16.1592 17.9998 15.8778L14.1208 11.9998Z" fill="#374957"/>
</svg>
