<svg width="14" height="14" viewBox="0 0 14 14" fill="none" xmlns="http://www.w3.org/2000/svg">
<path d="M9.12108 6.99982L13.0001 3.11682C13.2519 2.83058 13.3853 2.45918 13.3732 2.07811C13.361 1.69705 13.2042 1.33491 12.9346 1.06532C12.665 0.795727 12.3029 0.63891 11.9218 0.626743C11.5407 0.614577 11.1693 0.747974 10.8831 0.99982L7.00008 4.87882L3.11008 0.98782C2.97074 0.848488 2.80533 0.737963 2.62329 0.662557C2.44124 0.587151 2.24612 0.54834 2.04908 0.54834C1.85203 0.54834 1.65691 0.587151 1.47487 0.662557C1.29282 0.737963 1.12741 0.848488 0.988077 0.98782C0.848744 1.12715 0.73822 1.29256 0.662814 1.47461C0.587408 1.65666 0.548597 1.85177 0.548597 2.04882C0.548597 2.24587 0.587408 2.44098 0.662814 2.62303C0.73822 2.80508 0.848744 2.97049 0.988077 3.10982L4.87908 6.99982L1.00008 10.8818C0.84795 11.0178 0.725167 11.1834 0.63924 11.3685C0.553314 11.5536 0.506051 11.7542 0.500343 11.9582C0.494635 12.1621 0.530601 12.3651 0.606042 12.5547C0.681483 12.7443 0.794812 12.9165 0.939096 13.0608C1.08338 13.2051 1.25558 13.3184 1.44517 13.3939C1.63476 13.4693 1.83775 13.5053 2.04172 13.4996C2.24569 13.4938 2.44635 13.4466 2.63142 13.3607C2.81649 13.2747 2.98209 13.1519 3.11808 12.9998L7.00008 9.12082L10.8781 12.9998C11.1595 13.2812 11.5411 13.4393 11.9391 13.4393C12.337 13.4393 12.7187 13.2812 13.0001 12.9998C13.2815 12.7184 13.4396 12.3368 13.4396 11.9388C13.4396 11.5409 13.2815 11.1592 13.0001 10.8778L9.12108 6.99982Z" fill="#374957"/>
</svg>
