<svg width="26" height="26" viewBox="0 0 26 26" fill="none" xmlns="http://www.w3.org/2000/svg">
<path d="M24.716 7.26287C24.1265 4.5224 21.7086 2.562 18.9055 2.55164H5.93902C2.66028 2.5558 0.00355469 5.21303 0 8.49172V13.8908C0.00355469 17.1694 2.66048 19.8262 5.93902 19.8299H8.18614L9.81993 23.0294C10.572 24.4951 12.0903 25.4074 13.7375 25.3834C16.0937 25.3865 18.0064 23.4789 18.0095 21.1226C18.0098 20.8805 17.9895 20.6387 17.9488 20.4L17.8516 19.8299H20.0522C23.3323 19.8299 25.9913 17.1709 25.9913 13.8909C25.9913 13.478 25.9482 13.0661 25.8627 12.6621L24.716 7.26287ZM3.23944 13.8908V8.49172C3.23944 7.00078 4.44808 5.79219 5.93897 5.79219H7.55869V16.5904H5.93897C4.44808 16.5904 3.23944 15.3818 3.23944 13.8908ZM22.1438 15.5916C21.6321 16.2248 20.861 16.5921 20.0468 16.5904H14.0085L14.7503 20.9442C14.8034 21.2425 14.7198 21.549 14.5224 21.7789C14.3124 22.0225 14.0026 22.157 13.6812 22.1439C13.2724 22.1482 12.8962 21.9212 12.7094 21.5575L10.7981 17.8246V5.79219H18.9054C20.1796 5.79595 21.2788 6.68746 21.5456 7.93348L22.688 13.3326C22.8582 14.1291 22.658 14.9598 22.1438 15.5916Z" fill="#374957"/>
</svg>
