<svg width="26" height="26" viewBox="0 0 26 26" fill="none" xmlns="http://www.w3.org/2000/svg">
<path d="M24.716 18.7371C24.1265 21.4776 21.7086 23.438 18.9055 23.4484H5.93902C2.66028 23.4442 0.00355469 20.787 0 17.5083V12.1092C0.00355469 8.83063 2.66048 6.17375 5.93902 6.17015H8.18614L9.81993 2.97062C10.572 1.50492 12.0903 0.592588 13.7375 0.616607C16.0937 0.61351 18.0064 2.52111 18.0095 4.87736C18.0098 5.11953 17.9895 5.36125 17.9488 5.59997L17.8516 6.17009H20.0522C23.3323 6.17009 25.9913 8.82905 25.9913 12.1091C25.9913 12.522 25.9482 12.9339 25.8627 13.3379L24.716 18.7371ZM3.23944 12.1092V17.5083C3.23944 18.9992 4.44808 20.2078 5.93897 20.2078H7.55869V9.40963H5.93897C4.44808 9.40963 3.23944 10.6182 3.23944 12.1092ZM22.1438 10.4084C21.6321 9.77516 20.861 9.40791 20.0468 9.40963H14.0085L14.7503 5.0558C14.8034 4.75746 14.7198 4.45105 14.5224 4.22111C14.3124 3.97746 14.0026 3.84305 13.6812 3.85615C13.2724 3.85183 12.8962 4.07882 12.7094 4.44246L10.7981 8.1754V20.2078H18.9054C20.1796 20.2041 21.2788 19.3125 21.5456 18.0665L22.688 12.6674C22.8582 11.8709 22.658 11.0402 22.1438 10.4084Z" fill="#374957"/>
</svg>
