<svg width="24" height="24" viewBox="0 0 24 24" fill="none" xmlns="http://www.w3.org/2000/svg">
<g clip-path="url(#clip0_337_1425)">
<path d="M0.819069 17.5204C1.6041 17.9495 2.49408 18.1489 3.38717 18.0959C4.28026 18.0428 5.14037 17.7394 5.86907 17.2204C5.9275 17.1757 5.99901 17.1515 6.07257 17.1515C6.14613 17.1515 6.21764 17.1757 6.27607 17.2204C7.09786 17.7893 8.07358 18.0941 9.07307 18.0941C10.0726 18.0941 11.0483 17.7893 11.8701 17.2204C11.9284 17.1759 11.9997 17.1519 12.0731 17.1519C12.1464 17.1519 12.2177 17.1759 12.2761 17.2204C13.0977 17.7888 14.073 18.0934 15.0721 18.0934C16.0711 18.0934 17.0465 17.7888 17.8681 17.2204C17.9264 17.1751 17.9982 17.1506 18.0721 17.1506C18.1459 17.1506 18.2177 17.1751 18.2761 17.2204C19.0009 17.7483 19.862 18.0572 20.7571 18.1104C21.6522 18.1636 22.5438 17.9588 23.3261 17.5204C23.6701 17.3204 23.9205 16.992 24.0223 16.6073C24.1242 16.2227 24.069 15.8134 23.8691 15.4694C23.6691 15.1254 23.3407 14.8749 22.956 14.7731C22.5714 14.6713 22.1621 14.7264 21.8181 14.9264C21.5338 15.0712 21.2147 15.1339 20.8967 15.1074C20.5788 15.0809 20.2745 14.9663 20.0181 14.7764C19.4505 14.3744 18.7721 14.1585 18.0766 14.1585C17.381 14.1585 16.7027 14.3744 16.1351 14.7764C15.8246 14.9926 15.4554 15.1086 15.0771 15.1086C14.6987 15.1086 14.3295 14.9926 14.0191 14.7764C13.4519 14.3729 12.7731 14.1561 12.0771 14.1561C11.381 14.1561 10.7022 14.3729 10.1351 14.7764C9.82465 14.9931 9.45517 15.1093 9.07657 15.1093C8.69797 15.1093 8.32849 14.9931 8.01807 14.7764C7.45049 14.3744 6.7721 14.1585 6.07657 14.1585C5.38103 14.1585 4.70265 14.3744 4.13507 14.7764C3.87843 14.9684 3.5729 15.0841 3.25349 15.1105C2.93408 15.1369 2.6137 15.0727 2.32907 14.9254C1.98429 14.7257 1.57429 14.6711 1.18928 14.7737C0.804269 14.8763 0.475777 15.1276 0.276069 15.4724C0.0763608 15.8172 0.0217962 16.2272 0.124379 16.6122C0.226961 16.9972 0.478287 17.3257 0.823069 17.5254L0.819069 17.5204Z" fill="#374957"/>
<path d="M21.748 20.7995C21.4633 20.9466 21.1431 21.0107 20.8237 20.9846C20.5044 20.9584 20.1988 20.843 19.942 20.6515C19.375 20.2483 18.6966 20.0317 18.001 20.0317C17.3053 20.0317 16.6269 20.2483 16.06 20.6515C15.7492 20.8678 15.3796 20.9837 15.001 20.9837C14.6223 20.9837 14.2527 20.8678 13.942 20.6515C13.3749 20.2481 12.6963 20.0313 12.0005 20.0313C11.3046 20.0313 10.626 20.2481 10.059 20.6515C9.74837 20.8678 9.37895 20.9838 9.00045 20.9838C8.62195 20.9838 8.25254 20.8678 7.94195 20.6515C7.37494 20.2481 6.69634 20.0313 6.00045 20.0313C5.30457 20.0313 4.62597 20.2481 4.05895 20.6515C3.80231 20.8435 3.49678 20.9593 3.17737 20.9856C2.85796 21.012 2.53759 20.9478 2.25295 20.8005C1.9083 20.6008 1.49844 20.5462 1.11352 20.6487C0.728601 20.7512 0.400161 21.0024 0.200453 21.347C0.000744611 21.6917 -0.0538727 22.1015 0.048616 22.4864C0.151105 22.8714 0.402304 23.1998 0.746953 23.3995C1.53202 23.8285 2.42198 24.0279 3.31504 23.9748C4.2081 23.9218 5.0682 23.6184 5.79695 23.0995C5.8553 23.0551 5.92661 23.031 5.99995 23.031C6.0733 23.031 6.14461 23.0551 6.20295 23.0995C7.02474 23.6684 8.00046 23.9732 8.99995 23.9732C9.99944 23.9732 10.9752 23.6684 11.797 23.0995C11.8555 23.055 11.9269 23.0309 12.0005 23.0309C12.074 23.0309 12.1455 23.055 12.204 23.0995C13.0254 23.6693 14.0012 23.9747 15.001 23.9747C16.0007 23.9747 16.9765 23.6693 17.798 23.0995C17.8562 23.0547 17.9275 23.0305 18.001 23.0305C18.0744 23.0305 18.1458 23.0547 18.204 23.0995C18.9286 23.6271 19.7893 23.9357 20.684 23.9889C21.5787 24.0421 22.47 23.8375 23.252 23.3995C23.5967 23.2006 23.8484 22.8729 23.9515 22.4884C24.0547 22.104 24.0009 21.6943 23.802 21.3495C23.603 21.0047 23.2753 20.7531 22.8909 20.6499C22.5064 20.5468 22.0967 20.6006 21.752 20.7995H21.748Z" fill="#374957"/>
<path d="M3.5 12H6.2C6.73265 12.0004 7.2495 11.8191 7.66515 11.486C8.0808 11.1529 8.37036 10.688 8.486 10.168C8.66747 9.37092 9.11432 8.65913 9.75331 8.14927C10.3923 7.63941 11.1855 7.36173 12.003 7.36173C12.8205 7.36173 13.6137 7.63941 14.2527 8.14927C14.8917 8.65913 15.3385 9.37092 15.52 10.168C15.6352 10.687 15.9239 11.1513 16.3383 11.4843C16.7528 11.8173 17.2683 11.9992 17.8 12H20.5C20.8978 12 21.2794 11.842 21.5607 11.5607C21.842 11.2794 22 10.8978 22 10.5C22 10.1022 21.842 9.72064 21.5607 9.43934C21.2794 9.15804 20.8978 9 20.5 9H18.31C18.1062 8.33824 17.7991 7.71285 17.4 7.147L19.372 5.175C19.6533 4.89361 19.8112 4.51201 19.8111 4.11415C19.811 3.71629 19.6529 3.33476 19.3715 3.0535C19.0901 2.77224 18.7085 2.61428 18.3106 2.61437C17.9128 2.61447 17.5313 2.77261 17.25 3.054L15.156 5.148C14.6347 4.86556 14.0777 4.65467 13.5 4.521V1.5C13.5 1.10218 13.342 0.720644 13.0607 0.43934C12.7794 0.158035 12.3978 0 12 0C11.6022 0 11.2206 0.158035 10.9393 0.43934C10.658 0.720644 10.5 1.10218 10.5 1.5V4.521C9.92213 4.65453 9.36481 4.86508 8.843 5.147L6.75 3.054C6.46874 2.77261 6.08721 2.61447 5.68935 2.61437C5.2915 2.61428 4.90989 2.77224 4.6285 3.0535C4.34711 3.33476 4.18897 3.71629 4.18887 4.11415C4.18878 4.51201 4.34674 4.89361 4.628 5.175L6.6 7.146C6.20035 7.71203 5.89288 8.33778 5.689 9H3.5C3.10218 9 2.72064 9.15804 2.43934 9.43934C2.15804 9.72064 2 10.1022 2 10.5C2 10.8978 2.15804 11.2794 2.43934 11.5607C2.72064 11.842 3.10218 12 3.5 12Z" fill="#374957"/>
</g>
<defs>
<clipPath id="clip0_337_1425">
<rect width="24" height="24" fill="white"/>
</clipPath>
</defs>
</svg>
