<svg width="24" height="24" viewBox="0 0 24 24" fill="none" xmlns="http://www.w3.org/2000/svg">
<g clip-path="url(#clip0_572_1327)">
<path d="M0.818825 17.5203C1.60385 17.9494 2.49384 18.1489 3.38693 18.0958C4.28001 18.0428 5.14012 17.7394 5.86883 17.2203C5.92726 17.1756 5.99877 17.1514 6.07233 17.1514C6.14588 17.1514 6.2174 17.1756 6.27583 17.2203C7.09761 17.7892 8.07334 18.094 9.07283 18.094C10.0723 18.094 11.048 17.7892 11.8698 17.2203C11.9282 17.1759 11.9995 17.1518 12.0728 17.1518C12.1462 17.1518 12.2175 17.1759 12.2758 17.2203C13.0974 17.7888 14.0728 18.0933 15.0718 18.0933C16.0709 18.0933 17.0462 17.7888 17.8678 17.2203C17.9262 17.1751 17.998 17.1505 18.0718 17.1505C18.1457 17.1505 18.2174 17.1751 18.2758 17.2203C19.0006 17.7483 19.8617 18.0572 20.7569 18.1103C21.652 18.1635 22.5436 17.9587 23.3258 17.5203C23.6698 17.3203 23.9203 16.9919 24.0221 16.6073C24.1239 16.2226 24.0688 15.8133 23.8688 15.4693C23.6689 15.1253 23.3404 14.8749 22.9558 14.773C22.5711 14.6712 22.1618 14.7264 21.8178 14.9263C21.5335 15.0711 21.2145 15.1338 20.8965 15.1073C20.5785 15.0808 20.2742 14.9662 20.0178 14.7763C19.4502 14.3743 18.7719 14.1584 18.0763 14.1584C17.3808 14.1584 16.7024 14.3743 16.1348 14.7763C15.8244 14.9926 15.4552 15.1085 15.0768 15.1085C14.6985 15.1085 14.3293 14.9926 14.0188 14.7763C13.4517 14.3728 12.7729 14.156 12.0768 14.156C11.3808 14.156 10.702 14.3728 10.1348 14.7763C9.8244 14.9931 9.45493 15.1093 9.07633 15.1093C8.69772 15.1093 8.32825 14.9931 8.01783 14.7763C7.45024 14.3743 6.77186 14.1584 6.07633 14.1584C5.38079 14.1584 4.70241 14.3743 4.13483 14.7763C3.87818 14.9683 3.57265 15.0841 3.25324 15.1104C2.93383 15.1368 2.61346 15.0726 2.32883 14.9253C1.98404 14.7256 1.57405 14.6711 1.18904 14.7736C0.804025 14.8762 0.475533 15.1275 0.275825 15.4723C0.0761167 15.8171 0.0215521 16.2271 0.124135 16.6121C0.226717 16.9971 0.478043 17.3256 0.822825 17.5253L0.818825 17.5203Z" fill="#353535"/>
<path d="M21.7482 20.7994C21.4636 20.9466 21.1433 21.0107 20.824 20.9845C20.5046 20.9583 20.1991 20.8429 19.9422 20.6514C19.3753 20.2482 18.6969 20.0316 18.0012 20.0316C17.3055 20.0316 16.6271 20.2482 16.0602 20.6514C15.7494 20.8677 15.3798 20.9837 15.0012 20.9837C14.6226 20.9837 14.253 20.8677 13.9422 20.6514C13.3752 20.248 12.6966 20.0312 12.0007 20.0312C11.3048 20.0312 10.6262 20.248 10.0592 20.6514C9.74861 20.8678 9.3792 20.9837 9.0007 20.9837C8.6222 20.9837 8.25278 20.8678 7.9422 20.6514C7.37518 20.248 6.69658 20.0312 6.0007 20.0312C5.30481 20.0312 4.62621 20.248 4.0592 20.6514C3.80256 20.8434 3.49703 20.9592 3.17762 20.9856C2.85821 21.0119 2.53783 20.9478 2.2532 20.8004C1.90855 20.6007 1.49868 20.5461 1.11376 20.6486C0.728845 20.7511 0.400405 21.0023 0.200697 21.3469C0.000988752 21.6916 -0.0536285 22.1015 0.0488601 22.4864C0.151349 22.8713 0.402548 23.1997 0.747197 23.3994C1.53226 23.8285 2.42222 24.0278 3.31529 23.9748C4.20835 23.9217 5.06845 23.6184 5.7972 23.0994C5.85554 23.055 5.92686 23.0309 6.0002 23.0309C6.07354 23.0309 6.14486 23.055 6.2032 23.0994C7.02498 23.6683 8.00071 23.9731 9.0002 23.9731C9.99969 23.9731 10.9754 23.6683 11.7972 23.0994C11.8557 23.0549 11.9272 23.0308 12.0007 23.0308C12.0742 23.0308 12.1457 23.0549 12.2042 23.0994C13.0256 23.6693 14.0015 23.9746 15.0012 23.9746C16.0009 23.9746 16.9768 23.6693 17.7982 23.0994C17.8564 23.0547 17.9278 23.0304 18.0012 23.0304C18.0746 23.0304 18.146 23.0547 18.2042 23.0994C18.9288 23.627 19.7895 23.9357 20.6843 23.9888C21.579 24.042 22.4702 23.8375 23.2522 23.3994C23.597 23.2005 23.8486 22.8728 23.9518 22.4884C24.0549 22.1039 24.0011 21.6942 23.8022 21.3494C23.6033 21.0047 23.2756 20.753 22.8911 20.6499C22.5067 20.5467 22.097 20.6005 21.7522 20.7994H21.7482Z" fill="#353535"/>
<path d="M3.5 12H6.2C6.73265 12.0004 7.2495 11.8191 7.66515 11.486C8.0808 11.1529 8.37036 10.688 8.486 10.168C8.66747 9.37092 9.11432 8.65913 9.75331 8.14927C10.3923 7.63941 11.1855 7.36173 12.003 7.36173C12.8205 7.36173 13.6137 7.63941 14.2527 8.14927C14.8917 8.65913 15.3385 9.37092 15.52 10.168C15.6352 10.687 15.9239 11.1513 16.3383 11.4843C16.7528 11.8173 17.2683 11.9992 17.8 12H20.5C20.8978 12 21.2794 11.842 21.5607 11.5607C21.842 11.2794 22 10.8978 22 10.5C22 10.1022 21.842 9.72065 21.5607 9.43934C21.2794 9.15804 20.8978 9 20.5 9H18.31C18.1062 8.33824 17.7991 7.71285 17.4 7.147L19.372 5.175C19.6533 4.89361 19.8112 4.51201 19.8111 4.11415C19.811 3.71629 19.6529 3.33476 19.3715 3.0535C19.0901 2.77224 18.7085 2.61428 18.3106 2.61437C17.9128 2.61447 17.5313 2.77261 17.25 3.054L15.156 5.148C14.6347 4.86556 14.0777 4.65467 13.5 4.521V1.5C13.5 1.10218 13.342 0.720644 13.0607 0.43934C12.7794 0.158035 12.3978 0 12 0C11.6022 0 11.2206 0.158035 10.9393 0.43934C10.658 0.720644 10.5 1.10218 10.5 1.5V4.521C9.92213 4.65453 9.36481 4.86508 8.843 5.147L6.75 3.054C6.46874 2.77261 6.08721 2.61447 5.68935 2.61437C5.2915 2.61428 4.90989 2.77224 4.6285 3.0535C4.34711 3.33476 4.18897 3.71629 4.18887 4.11415C4.18878 4.51201 4.34674 4.89361 4.628 5.175L6.6 7.146C6.20035 7.71203 5.89288 8.33778 5.689 9H3.5C3.10218 9 2.72064 9.15804 2.43934 9.43934C2.15804 9.72065 2 10.1022 2 10.5C2 10.8978 2.15804 11.2794 2.43934 11.5607C2.72064 11.842 3.10218 12 3.5 12V12Z" fill="#353535"/>
</g>
<defs>
<clipPath id="clip0_572_1327">
<rect width="24" height="24" fill="white"/>
</clipPath>
</defs>
</svg>
