<svg width="24" height="24" viewBox="0 0 24 24" fill="none" xmlns="http://www.w3.org/2000/svg">
<g clip-path="url(#clip0_572_1323)">
<path d="M22.5592 11.0003C22.3618 10.9893 22.1642 11.0177 21.978 11.0839C21.7918 11.1501 21.6206 11.2528 21.4745 11.386C21.3284 11.5191 21.2103 11.6801 21.1272 11.8594C21.044 12.0387 20.9974 12.2328 20.9902 12.4303C20.8991 14.4691 20.1198 16.4169 18.7794 17.9558C17.4391 19.4948 15.6169 20.5342 13.6099 20.9045C11.6029 21.2747 9.52975 20.954 7.7285 19.9946C5.92726 19.0352 4.50426 17.4937 3.69165 15.6217C2.87903 13.7496 2.72475 11.6574 3.25397 9.68642C3.78319 7.71541 4.96468 5.98189 6.60571 4.76864C8.24674 3.55539 10.2505 2.93402 12.29 3.00588C14.3296 3.07773 16.2846 3.83859 17.8362 5.16432L16.7072 6.29332C16.5674 6.43317 16.4722 6.61133 16.4336 6.80529C16.395 6.99924 16.4148 7.20027 16.4905 7.38297C16.5662 7.56567 16.6943 7.72183 16.8587 7.83172C17.0231 7.9416 17.2164 8.00027 17.4142 8.00032H22.0002C22.2654 8.00032 22.5197 7.89496 22.7073 7.70742C22.8948 7.51989 23.0002 7.26553 23.0002 7.00032V2.41432C23.0001 2.21657 22.9415 2.02327 22.8316 1.85886C22.7217 1.69445 22.5655 1.56631 22.3828 1.49064C22.2001 1.41497 21.9991 1.39517 21.8051 1.43373C21.6112 1.4723 21.433 1.56751 21.2932 1.70732L19.9582 3.04232C17.9234 1.24112 15.3368 0.184986 12.6228 0.0471675C9.90879 -0.0906511 7.22853 0.698033 5.02172 2.28383C2.81491 3.86963 1.21259 6.15838 0.477626 8.7746C-0.257337 11.3908 -0.0812988 14.1792 0.97686 16.6822C2.03502 19.1852 3.91246 21.2542 6.30119 22.5499C8.68992 23.8456 11.4481 24.2909 14.1232 23.8129C16.7983 23.3348 19.2315 21.9618 21.0237 19.9189C22.8158 17.8761 23.8604 15.2849 23.9862 12.5703C23.9956 12.3735 23.9661 12.1768 23.8995 11.9914C23.8329 11.806 23.7304 11.6355 23.5979 11.4897C23.4654 11.3439 23.3054 11.2257 23.1272 11.1417C22.949 11.0577 22.756 11.0097 22.5592 11.0003V11.0003Z" fill="#353535"/>
<path d="M11.4998 6.99927C11.1019 6.99927 10.7204 7.1573 10.4391 7.43861C10.1578 7.71991 9.99976 8.10144 9.99976 8.49927V12.7923C9.99987 13.3226 10.2107 13.8313 10.5858 14.2063L12.3788 15.9993C12.6617 16.2725 13.0406 16.4237 13.4339 16.4203C13.8271 16.4168 14.2034 16.2591 14.4815 15.981C14.7596 15.7029 14.9173 15.3267 14.9208 14.9334C14.9242 14.5401 14.773 14.1612 14.4997 13.8783L12.9998 12.3783V8.49927C12.9998 8.10144 12.8417 7.71991 12.5604 7.43861C12.2791 7.1573 11.8976 6.99927 11.4998 6.99927V6.99927Z" fill="#353535"/>
</g>
<defs>
<clipPath id="clip0_572_1323">
<rect width="24" height="24" fill="white"/>
</clipPath>
</defs>
</svg>
