<svg width="24" height="24" viewBox="0 0 24 24" fill="none" xmlns="http://www.w3.org/2000/svg">
<g clip-path="url(#clip0_337_1413)">
<path d="M21.942 5.03647C21.901 5.01247 14.7561 1.71448 14.7561 1.71448C13.0402 0.76953 10.9599 0.76953 9.24407 1.71448C9.24407 1.71448 2.10009 5.01247 2.05809 5.03647C0.144977 6.07789 -0.561663 8.47306 0.479758 10.3862C0.842899 11.0533 1.39096 11.6013 2.05809 11.9645C2.10009 11.9885 5.0001 13.3285 5.0001 13.3285V18.0555C5.00291 20.0915 6.32877 21.8894 8.2731 22.4935C9.48407 22.8433 10.7397 23.0141 12.0001 23.0005C13.2605 23.0141 14.5161 22.8433 15.7271 22.4935C17.6714 21.8893 18.9973 20.0915 19.0001 18.0555V13.3285L21 12.4064V19.5005C21 20.3289 21.6716 21.0005 22.5 21.0005C23.3285 21.0005 24 20.3289 24 19.5005V8.46144C23.9604 6.98689 23.2557 5.67645 21.942 5.03647ZM16 18.0554C16.0037 18.77 15.5428 19.4042 14.862 19.6214C12.9872 20.1245 11.0129 20.1245 9.13804 19.6214C8.45723 19.4042 7.9964 18.77 8.00006 18.0554V14.7125L9.24407 15.2864C10.9593 16.2339 13.0409 16.2339 14.7561 15.2864L16.0001 14.7125V18.0554H16ZM20.485 9.34044C20.485 9.34044 13.356 12.6305 13.316 12.6545C12.5001 13.1185 11.5 13.1185 10.684 12.6545C10.644 12.6305 3.51501 9.34044 3.51501 9.34044C3.05109 9.10376 2.86687 8.53583 3.10354 8.0719C3.19387 7.89481 3.33791 7.75081 3.51501 7.66044C3.51501 7.66044 10.644 4.37042 10.684 4.34642C11.5 3.88236 12.5001 3.88236 13.316 4.34642C13.356 4.37042 20.485 7.66044 20.485 7.66044C20.9489 7.89711 21.1332 8.46505 20.8965 8.92897C20.8062 9.10611 20.6621 9.25011 20.485 9.34044Z" fill="#374957"/>
</g>
<defs>
<clipPath id="clip0_337_1413">
<rect width="24" height="24" fill="white"/>
</clipPath>
</defs>
</svg>
