<svg width="24" height="24" viewBox="0 0 24 24" fill="none" xmlns="http://www.w3.org/2000/svg">
<g clip-path="url(#clip0_337_1405)">
<path d="M11.4522 14.0188C7.19051 14.404 3.94366 18.0051 4.00024 22.2838V22.5008C4.00024 23.3292 4.67182 24.0008 5.50024 24.0008C6.32866 24.0008 7.00024 23.3292 7.00024 22.5008V22.2238C6.95515 19.5967 8.8939 17.3564 11.5002 17.0238C14.2515 16.751 16.703 18.7601 16.9758 21.5114C16.9919 21.674 17.0001 21.8373 17.0002 22.0008V22.5008C17.0002 23.3292 17.6718 24.0008 18.5002 24.0008C19.3286 24.0008 20.0002 23.3292 20.0002 22.5008V22.0008C19.9953 17.5775 16.4056 13.9957 11.9824 14.0006C11.8055 14.0008 11.6287 14.0069 11.4522 14.0188Z" fill="#374957"/>
<path d="M12.0005 12C15.3142 12 18.0005 9.31369 18.0005 6C18.0005 2.68631 15.3142 0 12.0005 0C8.6868 0 6.00049 2.68631 6.00049 6C6.00377 9.31233 8.68816 11.9967 12.0005 12ZM12.0005 3C13.6573 3 15.0005 4.34316 15.0005 6C15.0005 7.65684 13.6573 9 12.0005 9C10.3436 9 9.00049 7.65684 9.00049 6C9.00049 4.34316 10.3436 3 12.0005 3Z" fill="#374957"/>
</g>
<defs>
<clipPath id="clip0_337_1405">
<rect width="24" height="24" fill="white"/>
</clipPath>
</defs>
</svg>
