<svg width="24" height="24" viewBox="0 0 24 24" fill="none" xmlns="http://www.w3.org/2000/svg">
<g clip-path="url(#clip0_337_1409)">
<path d="M17.5001 24.0001C9.35108 24.2301 -5.07692 9.78507 1.86308 1.93806C1.88808 1.91406 2.95408 0.984065 2.95408 0.984065C3.61401 0.346104 4.49813 -0.00708886 5.41597 0.000580089C6.33381 0.00824904 7.21191 0.376166 7.86108 1.02506L10.0141 3.34407C10.6477 4.00649 10.9981 4.88985 10.9908 5.80648C10.9835 6.72311 10.6191 7.60079 9.97508 8.25307L9.58608 8.64707C10.7423 11.2059 12.7875 13.2585 15.3421 14.4241L15.7521 14.0241C16.4185 13.3887 17.3039 13.0343 18.2246 13.0343C19.1453 13.0343 20.0307 13.3887 20.6971 14.0241L22.9351 16.1001C23.599 16.7467 23.9802 17.6297 23.9953 18.5564C24.0105 19.483 23.6585 20.378 23.0161 21.0461C23.0161 21.0461 22.0861 22.1131 22.0621 22.1381C21.4624 22.7345 20.7505 23.2061 19.9675 23.5257C19.1844 23.8453 18.3458 24.0065 17.5001 24.0001ZM3.95008 4.10007C-0.909917 10.1171 14.6431 24.7731 19.9051 20.0501C19.9051 20.0501 20.8291 18.9911 20.8541 18.9661C20.9026 18.921 20.9413 18.8663 20.9678 18.8056C20.9942 18.7449 21.0079 18.6793 21.0079 18.6131C21.0079 18.5468 20.9942 18.4813 20.9678 18.4205C20.9413 18.3598 20.9026 18.3052 20.8541 18.2601L18.6161 16.1861C18.3161 15.9361 18.1481 15.9331 17.8681 16.1461L16.7331 17.2631C16.5282 17.4646 16.2697 17.6031 15.9883 17.662C15.707 17.7208 15.4146 17.6976 15.1461 17.5951C13.1508 16.8529 11.3384 15.6905 9.83184 14.1864C8.32524 12.6824 7.15965 10.8721 6.41408 8.87807C6.30524 8.60732 6.27773 8.31071 6.33492 8.02456C6.39212 7.73842 6.53153 7.47517 6.73608 7.26707L7.84508 6.14007C7.89563 6.09551 7.93627 6.04085 7.96438 5.97962C7.9925 5.91838 8.00746 5.85194 8.00831 5.78456C8.00916 5.71719 7.99587 5.65039 7.96931 5.58847C7.94274 5.52654 7.90349 5.47088 7.85408 5.42507L5.70008 3.10607C5.60348 3.02901 5.48176 2.99045 5.3584 2.99784C5.23505 3.00522 5.1188 3.05803 5.03208 3.14607C5.00908 3.17107 3.95008 4.10007 3.95008 4.10007ZM23.6501 10.9331C24.0745 9.46516 24.0975 7.91027 23.7166 6.43047C23.3356 4.95067 22.5648 3.60012 21.4844 2.51958C20.4039 1.43905 19.0534 0.668071 17.5737 0.287014C16.0939 -0.094043 14.539 -0.0712336 13.0711 0.353065C12.8823 0.409402 12.7065 0.502369 12.5536 0.626659C12.4008 0.750949 12.2739 0.904127 12.1803 1.07745C12.0866 1.25077 12.028 1.44084 12.0078 1.6368C11.9876 1.83277 12.0062 2.03079 12.0626 2.21957C12.1189 2.40834 12.2119 2.58417 12.3362 2.73702C12.4605 2.88986 12.6136 3.01673 12.787 3.11038C12.9603 3.20403 13.1504 3.26262 13.3463 3.28281C13.5423 3.30301 13.7403 3.2844 13.9291 3.22807C14.8784 2.95668 15.8829 2.94415 16.8387 3.19176C17.7944 3.43938 18.6666 3.93813 19.3646 4.63631C20.0627 5.33449 20.5613 6.20668 20.8088 7.16247C21.0563 8.11825 21.0436 9.12283 20.7721 10.0721C20.7158 10.2609 20.6973 10.459 20.7177 10.655C20.738 10.851 20.7967 11.041 20.8905 11.2143C20.9843 11.3876 21.1113 11.5407 21.2643 11.6649C21.4173 11.7891 21.5932 11.8819 21.7821 11.9381C21.9214 11.9791 22.0659 12 22.2111 12.0001C22.5339 11.9997 22.848 11.8952 23.1068 11.7021C23.3655 11.5089 23.555 11.2375 23.6471 10.9281L23.6501 10.9331ZM18.0641 11.0661C18.2035 10.9268 18.314 10.7614 18.3895 10.5793C18.4649 10.3973 18.5038 10.2021 18.5038 10.0051C18.5038 9.808 18.4649 9.61287 18.3895 9.43082C18.314 9.24877 18.2035 9.08337 18.0641 8.94407L17.0001 7.87907V6.50007C17.0001 6.10224 16.842 5.72071 16.5607 5.4394C16.2794 5.1581 15.8979 5.00007 15.5001 5.00007C15.1023 5.00007 14.7207 5.1581 14.4394 5.4394C14.1581 5.72071 14.0001 6.10224 14.0001 6.50007V8.50007C14 8.69708 14.0387 8.89219 14.114 9.07423C14.1894 9.25628 14.2998 9.42171 14.4391 9.56107L15.9391 11.0611C16.0784 11.2005 16.2438 11.311 16.4258 11.3865C16.6079 11.4619 16.803 11.5007 17.0001 11.5007C17.1971 11.5007 17.3923 11.4619 17.5743 11.3865C17.7564 11.311 17.9218 11.2005 18.0611 11.0611L18.0641 11.0661Z" fill="#374957"/>
</g>
<defs>
<clipPath id="clip0_337_1409">
<rect width="24" height="24" fill="white"/>
</clipPath>
</defs>
</svg>
