<svg width="24" height="24" viewBox="0 0 24 24" fill="none" xmlns="http://www.w3.org/2000/svg">
<path d="M22.7521 8.00909C21.714 6.72261 20.1484 5.97627 18.4952 5.97973H16.4648L16.5545 5.4537C16.92 3.31077 15.4792 1.27728 13.3363 0.911749C13.1005 0.871531 12.8615 0.852874 12.6224 0.856062C11.1197 0.848234 9.74123 1.68861 9.05981 3.02787L7.55348 5.97973H5.47931C2.45456 5.98306 0.00328125 8.4343 0 11.4591V16.4403C0.00328125 19.4651 2.45456 21.9163 5.47931 21.9196H17.4422C20.0277 21.9102 22.2583 20.1026 22.803 17.575L23.856 12.5938C24.2015 10.9773 23.7956 9.29122 22.7521 8.00909ZM2.9887 16.4403V11.4591C2.9887 10.0836 4.10377 8.96848 5.47931 8.96848H6.97369V18.9309H5.47931C4.10381 18.9309 2.9887 17.8158 2.9887 16.4403ZM20.932 11.9751L19.878 16.9564C19.6308 18.1051 18.6172 18.9267 17.4421 18.9309H9.96239V7.83373L11.7217 4.38575C11.9082 4.03672 12.2789 3.8262 12.6742 3.84481C13.1979 3.84514 13.6223 4.27006 13.622 4.79384C13.6219 4.84672 13.6175 4.8995 13.6087 4.95162L12.9242 8.96848H18.4952C19.8707 8.96834 20.9859 10.0833 20.986 11.4588C20.9861 11.6323 20.9679 11.8054 20.932 11.9751Z" fill="#353535"/>
</svg>
