<svg width="24" height="24" viewBox="0 0 24 24" fill="none" xmlns="http://www.w3.org/2000/svg">
<g clip-path="url(#clip0_337_1421)">
<path d="M22.5589 11.0004C22.3616 10.9894 22.164 11.0178 21.9778 11.084C21.7915 11.1502 21.6204 11.2529 21.4743 11.3861C21.3282 11.5192 21.2101 11.6801 21.1269 11.8595C21.0438 12.0388 20.9972 12.2329 20.9899 12.4304C20.8988 14.4692 20.1195 16.4169 18.7792 17.9559C17.4389 19.4949 15.6166 20.5343 13.6097 20.9046C11.6027 21.2748 9.52951 20.9541 7.72826 19.9947C5.92701 19.0353 4.50402 17.4938 3.6914 15.6217C2.87879 13.7497 2.7245 11.6575 3.25373 9.68649C3.78295 7.71548 4.96444 5.98197 6.60547 4.76872C8.2465 3.55547 10.2502 2.93409 12.2898 3.00595C14.3293 3.07781 16.2844 3.83866 17.8359 5.16439L16.7069 6.29339C16.5671 6.43325 16.4719 6.61141 16.4333 6.80536C16.3948 6.99931 16.4146 7.20035 16.4903 7.38305C16.5659 7.56575 16.6941 7.72191 16.8585 7.8318C17.0229 7.94168 17.2162 8.00035 17.4139 8.00039H21.9999C22.2651 8.00039 22.5195 7.89504 22.707 7.7075C22.8946 7.51996 22.9999 7.26561 22.9999 7.00039V2.41439C22.9999 2.21664 22.9412 2.02334 22.8313 1.85893C22.7214 1.69452 22.5653 1.56638 22.3826 1.49071C22.1999 1.41504 21.9989 1.39524 21.8049 1.43381C21.6109 1.47238 21.4328 1.56758 21.2929 1.70739L19.9579 3.04239C17.9231 1.2412 15.3365 0.185062 12.6225 0.0472438C9.90854 -0.0905749 7.22829 0.698109 5.02148 2.28391C2.81466 3.86971 1.21234 6.15846 0.477382 8.77468C-0.257581 11.3909 -0.0815429 14.1792 0.976616 16.6822C2.03478 19.1853 3.91222 21.2543 6.30095 22.55C8.68968 23.8457 11.4478 24.291 14.123 23.8129C16.7981 23.3349 19.2313 21.9618 21.0234 19.919C22.8155 17.8762 23.8602 15.285 23.9859 12.5704C23.9953 12.3736 23.9659 12.1769 23.8993 11.9915C23.8327 11.8061 23.7302 11.6356 23.5977 11.4898C23.4651 11.344 23.3052 11.2257 23.127 11.1418C22.9487 11.0578 22.7557 11.0098 22.5589 11.0004Z" fill="#374957"/>
<path d="M11.5 6.99937C11.1022 6.99937 10.7206 7.15741 10.4393 7.43871C10.158 7.72002 10 8.10155 10 8.49937V12.7924C10.0001 13.3228 10.2109 13.8314 10.586 14.2064L12.379 15.9994C12.6619 16.2726 13.0408 16.4238 13.4341 16.4204C13.8274 16.417 14.2036 16.2592 14.4817 15.9811C14.7598 15.703 14.9176 15.3268 14.921 14.9335C14.9244 14.5402 14.7732 14.1613 14.5 13.8784L13 12.3784V8.49937C13 8.10155 12.842 7.72002 12.5607 7.43871C12.2794 7.15741 11.8978 6.99937 11.5 6.99937Z" fill="#374957"/>
</g>
<defs>
<clipPath id="clip0_337_1421">
<rect width="24" height="24" fill="white"/>
</clipPath>
</defs>
</svg>
