<svg width="24" height="24" viewBox="0 0 24 24" fill="none" xmlns="http://www.w3.org/2000/svg">
<g clip-path="url(#clip0_572_1315)">
<path d="M21.9418 5.03656C21.9008 5.01256 14.7558 1.71457 14.7558 1.71457C13.04 0.769621 10.9596 0.769621 9.24383 1.71457C9.24383 1.71457 2.09984 5.01256 2.05784 5.03656C0.144733 6.07798 -0.561908 8.47315 0.479514 10.3863C0.842655 11.0534 1.39072 11.6014 2.05784 11.9646C2.09984 11.9886 4.99986 13.3286 4.99986 13.3286V18.0556C5.00267 20.0916 6.32853 21.8895 8.27286 22.4936C9.48383 22.8434 10.7395 23.0142 11.9998 23.0006C13.2603 23.0142 14.5159 22.8434 15.7268 22.4936C17.6712 21.8894 18.997 20.0916 18.9998 18.0556V13.3286L20.9998 12.4065V19.5005C20.9998 20.329 21.6714 21.0005 22.4998 21.0005C23.3282 21.0005 23.9998 20.329 23.9998 19.5005V8.46153C23.9601 6.98698 23.2555 5.67654 21.9418 5.03656ZM15.9998 18.0555C16.0034 18.7701 15.5426 19.4043 14.8618 19.6215C12.9869 20.1245 11.0127 20.1245 9.1378 19.6215C8.45698 19.4043 7.99616 18.7701 7.99981 18.0555V14.7125L9.24383 15.2865C10.959 16.234 13.0406 16.234 14.7558 15.2865L15.9998 14.7125V18.0555H15.9998ZM20.4848 9.34053C20.4848 9.34053 13.3558 12.6305 13.3158 12.6545C12.4998 13.1186 11.4997 13.1186 10.6838 12.6545C10.6438 12.6305 3.51476 9.34053 3.51476 9.34053C3.05084 9.10386 2.86662 8.53592 3.1033 8.072C3.19362 7.8949 3.33767 7.7509 3.51476 7.66053C3.51476 7.66053 10.6437 4.37051 10.6838 4.34651C11.4997 3.88245 12.4998 3.88245 13.3158 4.34651C13.3557 4.37051 20.4848 7.66053 20.4848 7.66053C20.9487 7.8972 21.1329 8.46514 20.8962 8.92906C20.8059 9.1062 20.6619 9.2502 20.4848 9.34053Z" fill="#353535"/>
</g>
<defs>
<clipPath id="clip0_572_1315">
<rect width="24" height="24" fill="white"/>
</clipPath>
</defs>
</svg>
