<svg width="24" height="24" viewBox="0 0 24 24" fill="none" xmlns="http://www.w3.org/2000/svg">
<g clip-path="url(#clip0_337_1417)">
<path d="M18.5 4.00031H15V3.00031C14.9995 2.55552 14.9002 2.11639 14.7094 1.71461C14.5186 1.31284 14.241 0.958433 13.8965 0.676974C13.5521 0.395515 13.1495 0.194022 12.7178 0.087035C12.2861 -0.0199521 11.836 -0.0297647 11.4 0.0583052C10.7092 0.214754 10.0933 0.604459 9.65621 1.1618C9.21908 1.71915 8.98733 2.4101 9 3.11831V4.00031H5.5C4.04188 4.00216 2.64401 4.58221 1.61296 5.61326C0.58191 6.64431 0.00185226 8.04218 0 9.50031L0 18.5003C0.00185226 19.9584 0.58191 21.3563 1.61296 22.3873C2.64401 23.4184 4.04188 23.9985 5.5 24.0003H18.5C19.9581 23.9985 21.356 23.4184 22.387 22.3873C23.4181 21.3563 23.9981 19.9584 24 18.5003V9.50031C23.9981 8.04218 23.4181 6.64431 22.387 5.61326C21.356 4.58221 19.9581 4.00216 18.5 4.00031ZM21 18.5003C21 19.1633 20.7366 19.7992 20.2678 20.2681C19.7989 20.7369 19.163 21.0003 18.5 21.0003H5.5C4.83696 21.0003 4.20107 20.7369 3.73223 20.2681C3.26339 19.7992 3 19.1633 3 18.5003V9.50031C3 8.83726 3.26339 8.20138 3.73223 7.73254C4.20107 7.2637 4.83696 7.00031 5.5 7.00031H9.184C9.38765 7.58485 9.76816 8.09153 10.2727 8.45008C10.7773 8.80862 11.381 9.00125 12 9.00125C12.619 9.00125 13.2227 8.80862 13.7273 8.45008C14.2318 8.09153 14.6124 7.58485 14.816 7.00031H18.5C19.163 7.00031 19.7989 7.2637 20.2678 7.73254C20.7366 8.20138 21 8.83726 21 9.50031V18.5003ZM10 13.0003V17.0003C10 17.5307 9.78929 18.0394 9.41421 18.4145C9.03914 18.7896 8.53043 19.0003 8 19.0003H7C6.46957 19.0003 5.96086 18.7896 5.58579 18.4145C5.21071 18.0394 5 17.5307 5 17.0003V13.0003C5 12.4699 5.21071 11.9612 5.58579 11.5861C5.96086 11.211 6.46957 11.0003 7 11.0003H8C8.53043 11.0003 9.03914 11.211 9.41421 11.5861C9.78929 11.9612 10 12.4699 10 13.0003ZM18 17.5003C18 17.8981 17.842 18.2797 17.5607 18.561C17.2794 18.8423 16.8978 19.0003 16.5 19.0003H13.5C13.1022 19.0003 12.7206 18.8423 12.4393 18.561C12.158 18.2797 12 17.8981 12 17.5003C12 17.1025 12.158 16.721 12.4393 16.4396C12.7206 16.1583 13.1022 16.0003 13.5 16.0003H16.5C16.8978 16.0003 17.2794 16.1583 17.5607 16.4396C17.842 16.721 18 17.1025 18 17.5003ZM19 12.5003C19 12.8981 18.842 13.2797 18.5607 13.561C18.2794 13.8423 17.8978 14.0003 17.5 14.0003H13.5C13.1022 14.0003 12.7206 13.8423 12.4393 13.561C12.158 13.2797 12 12.8981 12 12.5003C12 12.1025 12.158 11.7209 12.4393 11.4396C12.7206 11.1583 13.1022 11.0003 13.5 11.0003H17.5C17.8978 11.0003 18.2794 11.1583 18.5607 11.4396C18.842 11.7209 19 12.1025 19 12.5003Z" fill="#374957"/>
</g>
<defs>
<clipPath id="clip0_337_1417">
<rect width="24" height="24" fill="white"/>
</clipPath>
</defs>
</svg>
