<svg width="24" height="24" viewBox="0 0 24 24" fill="none" xmlns="http://www.w3.org/2000/svg">
<g clip-path="url(#clip0_572_1307)">
<path d="M11.4525 14.0187C7.19075 14.4039 3.94391 18.005 4.00048 22.2837V22.5007C4.00048 23.3291 4.67206 24.0007 5.50048 24.0007C6.32891 24.0007 7.00048 23.3291 7.00048 22.5007V22.2237C6.95539 19.5966 8.89414 17.3563 11.5005 17.0237C14.2517 16.7509 16.7032 18.76 16.976 21.5113C16.9922 21.6739 17.0003 21.8373 17.0005 22.0007V22.5007C17.0005 23.3291 17.672 24.0007 18.5005 24.0007C19.3289 24.0007 20.0005 23.3291 20.0005 22.5007V22.0007C19.9956 17.5774 16.4059 13.9956 11.9826 14.0005C11.8058 14.0007 11.629 14.0068 11.4525 14.0187Z" fill="#353535"/>
<path d="M12.0005 12C15.3142 12 18.0005 9.31369 18.0005 6C18.0005 2.68631 15.3142 0 12.0005 0C8.6868 0 6.00049 2.68631 6.00049 6C6.00377 9.31233 8.68816 11.9967 12.0005 12ZM12.0005 3C13.6573 3 15.0005 4.34316 15.0005 6C15.0005 7.65684 13.6573 9 12.0005 9C10.3436 9 9.00049 7.65684 9.00049 6C9.00049 4.34316 10.3436 3 12.0005 3Z" fill="#353535"/>
</g>
<defs>
<clipPath id="clip0_572_1307">
<rect width="24" height="24" fill="white"/>
</clipPath>
</defs>
</svg>
